<svg xmlns="http://www.w3.org/2000/svg" width="32" height="32" viewBox="0 0 512 512"><path d="M256 49.47c67.266 0 75.233.258 101.8 1.47 24.562 1.12 37.9 5.224 46.778 8.674a78.052 78.052 0 0 1 28.966 18.845 78.052 78.052 0 0 1 18.845 28.96c3.45 8.87 7.55 22.21 8.67 46.78 1.21 26.56 1.47 34.53 1.47 101.8s-.26 75.23-1.47 101.8c-1.12 24.56-5.23 37.9-8.68 46.78a83.427 83.427 0 0 1-47.81 47.81c-8.88 3.45-22.22 7.55-46.78 8.67-26.56 1.21-34.53 1.47-101.8 1.47s-75.24-.26-101.8-1.47c-24.56-1.12-37.9-5.23-46.78-8.68a78.05 78.05 0 0 1-28.97-18.85 78.053 78.053 0 0 1-18.84-28.96c-3.45-8.88-7.557-22.22-8.677-46.78-1.21-26.567-1.47-34.535-1.47-101.8s.26-75.236 1.47-101.8c1.12-24.565 5.224-37.9 8.674-46.78a78.052 78.052 0 0 1 18.85-28.968A78.053 78.053 0 0 1 107.42 59.6c8.877-3.45 22.216-7.554 46.778-8.674 26.565-1.214 34.532-1.47 101.8-1.47m0-45.39c-68.418 0-77 .29-103.866 1.51-26.816 1.228-45.128 5.486-61.15 11.71a123.488 123.488 0 0 0-44.62 29.06 123.488 123.488 0 0 0-29.07 44.63C11.074 107.01 6.82 125.32 5.6 152.14 4.37 179 4.08 187.582 4.08 256s.29 77 1.52 103.866c1.224 26.815 5.482 45.127 11.71 61.15a123.49 123.49 0 0 0 29.057 44.62 123.486 123.486 0 0 0 44.62 29.058c16.025 6.228 34.337 10.486 61.15 11.71 26.87 1.226 35.45 1.516 103.867 1.516s77-.29 103.866-1.516c26.815-1.224 45.127-5.482 61.15-11.71a128.817 128.817 0 0 0 73.678-73.677c6.228-16.025 10.486-34.337 11.71-61.15 1.226-26.87 1.516-35.45 1.516-103.867s-.29-77-1.516-103.866c-1.224-26.815-5.482-45.127-11.71-61.15a123.486 123.486 0 0 0-29.057-44.62A123.487 123.487 0 0 0 421.02 17.3c-16.025-6.223-34.337-10.48-61.152-11.7C333 4.37 324.418 4.08 256 4.08z"/><path d="M256 126.635A129.365 129.365 0 1 0 385.365 256 129.365 129.365 0 0 0 256 126.635zm0 213.338A83.973 83.973 0 1 1 339.974 256 83.974 83.974 0 0 1 256 339.973z"/><circle cx="390.476" cy="121.524" r="30.23"/></svg>