<svg xmlns="http://www.w3.org/2000/svg" width="32" height="32" viewBox="211.5 0 79.5 79.5"><defs><mask id="a"><path fill="#fff" d="M211.5 0H291v79.5h-79.5z"/><path d="M236.85 65.61V31.18h-11.443v34.43h11.444zm-5.72-39.13c3.99 0 6.473-2.644 6.473-5.948-.074-3.38-2.484-5.95-6.4-5.95-3.913 0-6.473 2.57-6.473 5.95 0 3.304 2.484 5.948 6.324 5.948h.074zm12.053 39.13h11.444V46.385c0-1.03.074-2.057.376-2.793.828-2.055 2.71-4.184 5.872-4.184 4.14 0 5.798 3.157 5.798 7.786v18.42h11.443V45.868c0-10.576-5.646-15.497-13.175-15.497-6.17 0-8.88 3.45-10.39 5.8h.08v-4.99h-11.44c.15 3.23 0 34.43 0 34.43z" fill-rule="evenodd"/></mask></defs><path fill="#ffffff" d="M213.883 7.245c0-3.015 2.507-5.462 5.6-5.462h64.57c3.09 0 5.598 2.447 5.598 5.462V72.57c0 3.016-2.5 5.46-5.59 5.46h-64.57c-3.09 0-5.6-2.444-5.6-5.46V7.244z" mask="url(#a)"/></svg>