<svg xmlns="http://www.w3.org/2000/svg" height="168" width="168" viewBox="0 0 168 168">
    <path fill="#1ED760" d="M83.996.277C37.746.277.253 37.77.253 84.02c0 46.25 37.494 83.74 83.743 83.74 46.254 0 83.744-37.49 83.744-83.74 0-46.247-37.49-83.74-83.745-83.74V.278zm38.404 120.78a5.217 5.217 0 0 1-7.18 1.73c-19.662-12.01-44.414-14.73-73.564-8.07a5.222 5.222 0 0 1-6.25-3.93 5.213 5.213 0 0 1 3.927-6.25c31.9-7.29 59.263-4.15 81.337 9.34 2.46 1.51 3.24 4.72 1.73 7.18zm10.25-22.805c-1.89 3.075-5.91 4.045-8.98 2.155-22.51-13.84-56.823-17.846-83.448-9.764-3.453 1.043-7.1-.903-8.148-4.35a6.538 6.538 0 0 1 4.354-8.143c30.413-9.228 68.222-4.758 94.072 11.127 3.07 1.89 4.04 5.91 2.15 8.976zm.88-23.744c-26.99-16.03-71.52-17.505-97.29-9.684-4.137 1.255-8.513-1.08-9.767-5.22a7.835 7.835 0 0 1 5.22-9.77c29.582-8.98 78.757-7.245 109.83 11.202a7.823 7.823 0 0 1 2.74 10.733c-2.2 3.72-7.02 4.94-10.73 2.73z"/>
</svg>
