<svg height="32" version="1" viewBox="0 0 32 32" width="32" xmlns="http://www.w3.org/2000/svg"><path d="M32 30a2 2 0 0 1-2 2H2a2 2 0 0 1-2-2V2a2 2 0 0 1 2-2h28a2 2 0 0 1 2 2v28z" fill="#55ACEE"/><path d="M25.987 9.894a8.277 8.277 0 0 1-2.357.635c.85-.5 1.5-1.29 1.806-2.232a8.32 8.32 0 0 1-2.605.978A4.125 4.125 0 0 0 19.84 8c-2.266 0-4.1 1.807-4.1 4.038 0 .314.036.625.104.922A11.724 11.724 0 0 1 7.39 8.74a3.986 3.986 0 0 0-.556 2.03c0 1.4.726 2.636 1.824 3.36a4.135 4.135 0 0 1-1.856-.505v.052c0 1.955 1.413 3.59 3.29 3.96-.344.09-.706.142-1.082.142a4.07 4.07 0 0 1-.77-.073c.52 1.604 2.034 2.77 3.828 2.805a8.293 8.293 0 0 1-5.09 1.728c-.33 0-.657-.018-.978-.056a11.744 11.744 0 0 0 6.287 1.813c7.54 0 11.666-6.154 11.666-11.49 0-.174-.005-.35-.012-.522a8.313 8.313 0 0 0 2.047-2.09z" fill="#FFF"/></svg>