<?xml version="1.0" encoding="utf-8"?>
<!-- Generator: Adobe Illustrator 15.0.2, SVG Export Plug-In . SVG Version: 6.00 Build 0)  -->
<!DOCTYPE svg PUBLIC "-//W3C//DTD SVG 1.1//EN" "http://www.w3.org/Graphics/SVG/1.1/DTD/svg11.dtd">
<svg version="1.1" id="Layer_1" xmlns="http://www.w3.org/2000/svg" xmlns:xlink="http://www.w3.org/1999/xlink" x="0px" y="0px"
	 width="120px" height="120px" viewBox="0 0 120 120" enable-background="new 0 0 120 120" xml:space="preserve">
<circle display="none" fill="none" stroke="#000000" stroke-miterlimit="10" cx="370" cy="296" r="60.211"/>
<path fill="#FFFFFF" stroke="#000000" stroke-miterlimit="10" d="M29.5,110"/>
<g>
	<path fill="#C6E2F5" d="M55.844,40.868L38.092,57.041l0.351,0.411c2.499,3.476,4.422,6.475,5.772,8.993
		c1.346,2.517,2.021,4.911,2.021,7.176c0,1.483-0.306,2.913-0.908,4.276c-0.608,1.37-1.417,2.58-2.432,3.634
		c-1.019,1.055-2.198,1.898-3.545,2.519c-1.347,0.629-2.782,0.939-4.305,0.939c-1.603,0-3.088-0.271-4.454-0.819
		c-1.368-0.549-2.561-1.231-3.574-2.051c-1.018-0.819-1.816-1.722-2.403-2.694c-0.586-0.978-0.879-1.897-0.879-2.756
		c0-0.586,0.119-1.154,0.353-1.697c0.233-0.549,0.546-1.049,0.937-1.498c0.391-0.449,0.858-0.802,1.407-1.054
		c0.546-0.253,1.113-0.377,1.699-0.377c0.821,0,1.562,0.239,2.225,0.73c0.666,0.491,1.114,1.14,1.35,1.959
		c0.155,0.593,0.136,1.221-0.06,1.907c-0.195,0.687-0.46,1.307-0.792,1.875c-0.332,0.567-0.644,1.006-0.937,1.32
		c-0.293,0.314-0.439,0.392-0.439,0.234c0,1.13,1.015,1.951,3.047,2.461l0.117,0.057c0.391,0.119,0.82,0.176,1.29,0.176
		c0.741,0,1.483-0.163,2.225-0.495c0.743-0.334,1.406-0.773,1.992-1.322c0.586-0.549,1.063-1.187,1.436-1.931
		c0.372-0.745,0.558-1.527,0.558-2.346c0-1.602-0.713-3.467-2.139-5.599c-1.428-2.126-3.507-4.868-6.242-8.229L12.72,80.242
		l-1.23-1.468l19.042-17.341l-1.817-2.284c-1.328-1.525-2.431-2.937-3.309-4.248c-0.879-1.312-1.592-2.542-2.139-3.69
		c-0.548-1.149-0.937-2.247-1.173-3.281c-0.233-1.035-0.351-2.083-0.351-3.133c0-1.488,0.313-2.832,0.937-4.043
		c0.625-1.211,1.464-2.241,2.521-3.08c1.053-0.839,2.283-1.492,3.69-1.959c1.406-0.472,2.89-0.701,4.453-0.701
		c1.407,0,2.772,0.229,4.1,0.701c1.329,0.467,2.511,1.083,3.546,1.845c1.035,0.763,1.855,1.611,2.46,2.546
		c0.606,0.939,0.908,1.897,0.908,2.871c0,1.253-0.382,2.288-1.142,3.108c-0.763,0.82-1.671,1.23-2.726,1.23
		c-1.131,0-2.04-0.333-2.725-0.996c-0.684-0.664-1.025-1.679-1.025-3.047c0,0.115-0.019,0.038-0.057-0.234
		c-0.041-0.271-0.012-0.634,0.088-1.082c0.096-0.448,0.282-0.911,0.556-1.382c0.272-0.467,0.722-0.84,1.347-1.111
		c0-0.233-0.205-0.486-0.615-0.758c-0.41-0.276-0.909-0.52-1.492-0.734c-0.586-0.215-1.223-0.392-1.905-0.525
		c-0.684-0.143-1.318-0.209-1.905-0.209c-0.508,0-1.034,0.148-1.58,0.439c-0.549,0.296-1.047,0.677-1.496,1.145
		c-0.45,0.467-0.82,1.006-1.113,1.611c-0.293,0.606-0.439,1.202-0.439,1.788c0,0.978,0.313,2.017,0.938,3.132
		c0.624,1.116,1.444,2.318,2.459,3.605c0.272,0.314,0.761,0.906,1.464,1.783c0.704,0.882,1.877,2.241,3.517,4.072l0.47,0.705
		l17.636-16.054L55.844,40.868z M19.694,60.556c-0.197,0.739-0.586,1.33-1.173,1.759s-1.23,0.64-1.933,0.64
		c-0.899,0-1.659-0.329-2.285-0.993c-0.626-0.667-0.939-1.426-0.939-2.289c0-0.896,0.332-1.64,0.997-2.222
		c0.666-0.585,1.406-0.877,2.227-0.877c0.898,0,1.65,0.338,2.255,1.021c0.606,0.686,0.909,1.439,0.909,2.261
		C19.751,60.165,19.732,60.397,19.694,60.556z M53.734,59.502c-0.195,0.743-0.584,1.324-1.17,1.753s-1.211,0.649-1.876,0.649
		c-0.898,0-1.659-0.324-2.284-0.968c-0.625-0.642-0.937-1.415-0.937-2.312c0-0.9,0.313-1.641,0.937-2.231
		c0.625-0.581,1.366-0.878,2.226-0.878c0.896,0,1.66,0.315,2.284,0.936c0.625,0.629,0.937,1.373,0.937,2.231
		C53.851,58.915,53.813,59.187,53.734,59.502z"/>
</g>
<path fill="#C6E2F5" d="M60,0C26.863,0,0,26.863,0,60c0,33.137,26.863,60,60,60c33.137,0,60-26.863,60-60C120,26.863,93.137,0,60,0z
	 M59,114.017C30,113.615,5.711,89.592,5.711,60S30,6.385,59,5.983V114.017z M89.247,83.916c-13.183,0-22.382-10.833-22.382-24.734
	c0-13.49,8.584-23.098,21.77-23.098c8.687,0,16.25,3.885,16.25,9.914c0,3.576-3.064,6.236-6.438,6.236
	c-3.679,0-7.258-2.661-7.258-6.236c0-2.349,1.227-4.7,3.783-7.053c-1.329-0.304-2.657-0.51-3.885-0.51
	c-8.176,0-13.083,8.075-13.083,19.418c0,11.654,5.417,23.303,13.185,23.303c4.396,0,9.097-3.37,14.004-10.016
	C103.558,77.374,95.891,83.916,89.247,83.916z"/>
</svg>
