<?xml version="1.0" encoding="utf-8"?>
<!-- Generator: Adobe Illustrator 15.0.2, SVG Export Plug-In . SVG Version: 6.00 Build 0)  -->
<!DOCTYPE svg PUBLIC "-//W3C//DTD SVG 1.1//EN" "http://www.w3.org/Graphics/SVG/1.1/DTD/svg11.dtd">
<svg version="1.1" id="Layer_1" xmlns="http://www.w3.org/2000/svg" xmlns:xlink="http://www.w3.org/1999/xlink" x="0px" y="0px"
	 width="120px" height="120px" viewBox="0 0 120 120" enable-background="new 0 0 120 120" xml:space="preserve">
<circle display="none" fill="none" stroke="#000000" stroke-miterlimit="10" cx="430" cy="356" r="60.211"/>
<path fill="#FFFFFF" stroke="#000000" stroke-miterlimit="10" d="M29.5,110"/>
<g>
	<path fill="#C6E2F5" d="M55.763,40.858L38.001,57.039l0.351,0.411c2.5,3.478,4.425,6.478,5.775,8.997
		c1.347,2.519,2.022,4.914,2.022,7.18c0,1.484-0.306,2.914-0.909,4.278c-0.608,1.371-1.417,2.581-2.433,3.636
		c-1.019,1.055-2.199,1.899-3.547,2.52C37.914,84.69,36.478,85,34.954,85c-1.603,0-3.089-0.272-4.456-0.82
		c-1.369-0.549-2.562-1.232-3.576-2.053c-1.019-0.82-1.817-1.722-2.404-2.695c-0.586-0.979-0.88-1.898-0.88-2.757
		c0-0.586,0.119-1.155,0.353-1.698c0.234-0.549,0.546-1.049,0.937-1.498c0.392-0.449,0.859-0.802,1.408-1.055
		c0.546-0.253,1.114-0.376,1.7-0.376c0.821,0,1.563,0.238,2.226,0.73c0.666,0.492,1.115,1.14,1.35,1.96
		c0.155,0.593,0.136,1.222-0.06,1.908c-0.195,0.688-0.46,1.308-0.792,1.875c-0.332,0.567-0.644,1.006-0.937,1.321
		c-0.293,0.314-0.439,0.393-0.439,0.234c0,1.131,1.016,1.952,3.048,2.462l0.117,0.057c0.391,0.119,0.82,0.176,1.29,0.176
		c0.742,0,1.484-0.163,2.227-0.496c0.744-0.334,1.407-0.773,1.993-1.322c0.587-0.549,1.064-1.188,1.436-1.932
		c0.372-0.745,0.559-1.527,0.559-2.347c0-1.603-0.714-3.469-2.14-5.601c-1.429-2.127-3.509-4.87-6.245-8.233L12.618,80.252
		l-1.231-1.469l19.051-17.35l-1.817-2.285c-1.329-1.525-2.433-2.938-3.311-4.25c-0.879-1.313-1.593-2.543-2.14-3.692
		c-0.548-1.15-0.937-2.248-1.173-3.282c-0.233-1.036-0.351-2.084-0.351-3.134c0-1.489,0.313-2.833,0.937-4.046
		c0.625-1.212,1.465-2.242,2.521-3.082c1.054-0.839,2.285-1.493,3.693-1.96C30.204,35.229,31.688,35,33.252,35
		c1.407,0,2.774,0.229,4.103,0.701c1.329,0.467,2.512,1.083,3.547,1.846c1.035,0.763,1.855,1.612,2.462,2.548
		c0.606,0.939,0.908,1.898,0.908,2.872c0,1.254-0.382,2.29-1.143,3.11c-0.763,0.821-1.672,1.23-2.727,1.23
		c-1.132,0-2.042-0.333-2.726-0.996c-0.685-0.664-1.025-1.68-1.025-3.049c0,0.115-0.02,0.038-0.058-0.234
		c-0.04-0.271-0.012-0.634,0.088-1.083c0.095-0.449,0.282-0.911,0.556-1.383c0.272-0.467,0.723-0.84,1.348-1.112
		c0-0.234-0.205-0.486-0.615-0.758c-0.41-0.277-0.909-0.52-1.493-0.735c-0.586-0.214-1.224-0.391-1.906-0.525
		c-0.685-0.143-1.319-0.209-1.906-0.209c-0.508,0-1.035,0.148-1.582,0.439c-0.549,0.296-1.047,0.677-1.496,1.145
		c-0.451,0.468-0.821,1.007-1.114,1.612c-0.294,0.606-0.439,1.203-0.439,1.789c0,0.979,0.313,2.018,0.938,3.134
		c0.625,1.116,1.445,2.318,2.461,3.606c0.272,0.315,0.762,0.907,1.465,1.784c0.704,0.883,1.878,2.242,3.518,4.074l0.47,0.706
		l17.644-16.062L55.763,40.858z M19.594,60.556c-0.197,0.739-0.586,1.331-1.173,1.76c-0.587,0.429-1.231,0.64-1.934,0.64
		c-0.9,0-1.66-0.329-2.286-0.993c-0.627-0.668-0.939-1.426-0.939-2.29c0-0.896,0.332-1.641,0.997-2.223
		c0.666-0.586,1.408-0.878,2.229-0.878c0.899,0,1.65,0.339,2.256,1.021c0.606,0.687,0.909,1.44,0.909,2.262
		C19.652,60.165,19.633,60.397,19.594,60.556z M53.651,59.501c-0.195,0.744-0.584,1.325-1.171,1.754
		c-0.586,0.43-1.211,0.649-1.877,0.649c-0.899,0-1.66-0.324-2.285-0.969c-0.625-0.643-0.937-1.416-0.937-2.313
		c0-0.901,0.313-1.642,0.937-2.233c0.625-0.581,1.366-0.878,2.228-0.878c0.897,0,1.661,0.315,2.285,0.936
		c0.625,0.63,0.938,1.374,0.938,2.232C53.768,58.915,53.73,59.186,53.651,59.501z"/>
</g>
<path fill="#C6E2F5" d="M60,0C26.863,0,0,26.863,0,60c0,33.137,26.863,60,60,60c33.137,0,60-26.863,60-60C120,26.863,93.137,0,60,0z
	 M59,114.207C29.399,113.804,5.524,89.696,5.524,60S29.399,6.196,59,5.793V114.207z M89.31,85.096
	c-13.068,0-22.188-11.324-22.188-25.855c0-14.102,8.51-24.145,21.581-24.145c8.611,0,16.109,4.061,16.109,10.362
	c0,3.738-3.038,6.519-6.382,6.519c-3.647,0-7.194-2.781-7.194-6.519c0-2.456,1.215-4.914,3.75-7.372
	c-1.318-0.318-2.633-0.533-3.851-0.533c-8.105,0-12.968,8.442-12.968,20.299c0,12.182,5.369,24.359,13.07,24.359
	c4.357,0,9.018-3.523,13.881-10.47C103.497,78.257,95.896,85.096,89.31,85.096z"/>
</svg>
