<svg xmlns="http://www.w3.org/2000/svg" width="120" height="120" viewBox="0 0 120 120"><path d="M60.21 86.86C49.682 86.86 40 79.07 40 69.695c0-7.985 5.66-16.715 16.982-26.188a38.42 38.42 0 0 1-1.092-9.027c0-8.78 2.93-17.012 8.044-21.13 4.52 6.25 6.753 12.204 6.753 17.808 0 7.292-3.376 13.938-10.774 20.188l2.185 10.466c1.19-.1 1.887-.15 1.986-.15C70.687 61.662 76 66.72 76 73.318c0 4.813-3.626 9.373-8.938 11.954-.05-.346 2.135 9.475 2.135 10.862 0 6.202-5.66 10.518-12.313 10.518-4.966 0-9.087-3.325-9.087-8.385 0-3.62 2.483-6.398 6.107-6.398 3.178 0 5.66 3.175 5.66 6.2 0 3.42-2.878 5.754-6.702 6.15 1.49.744 3.078 1.14 4.717 1.14 5.36 0 10.33-4.066 10.33-8.93 0-.493-.05-.99-.15-1.535l-1.89-9.178c-1.59.795-3.327 1.143-5.66 1.143zm-5.513-13.05c0 2.532 1.34 4.664 4.072 6.35-4.47-.693-7.45-3.62-7.45-7.786 0-4.91 4.37-9.276 9.535-10.366l-2.085-9.92c-9.284 6.944-14.2 13.74-14.2 20.336 0 7.29 6.952 13.292 14.996 13.292 2.334 0 4.27-.396 6.006-1.338L62 67.318c-4.125.544-7.302 3.072-7.302 6.494zm10.13-53.368c-4.122 0-7.2 9.176-7.2 17.508 0 1.736.098 3.324.446 4.762 6.703-5.952 10.13-11.358 10.13-16.17 0-2.33-.846-4.315-2.483-6a4.4 4.4 0 0 0-.893-.1zm6.9 54.71c0-4.117-2.977-8.136-7.248-8.136-.15 0-.547.05-1.24.1l3.523 16.565c3.227-2.38 4.965-5.256 4.965-8.53z"/></svg>