<?xml version="1.0" encoding="utf-8"?>
<!-- Generator: Adobe Illustrator 15.0.2, SVG Export Plug-In . SVG Version: 6.00 Build 0)  -->
<!DOCTYPE svg PUBLIC "-//W3C//DTD SVG 1.1//EN" "http://www.w3.org/Graphics/SVG/1.1/DTD/svg11.dtd">
<svg version="1.1" id="Layer_1" xmlns="http://www.w3.org/2000/svg" xmlns:xlink="http://www.w3.org/1999/xlink" x="0px" y="0px"
	 width="45.75px" height="45.75px" viewBox="0 0 45.75 45.75" enable-background="new 0 0 45.75 45.75" xml:space="preserve">
<g>
	<path fill="#D1242C" d="M22.875,0C10.242,0,0,10.241,0,22.875C0,35.508,10.242,45.75,22.875,45.75
		c12.633,0,22.875-10.242,22.875-22.875C45.75,10.241,35.508,0,22.875,0z M32.016,24.526l-0.002,0.004L19.367,35.452
		c-0.537,0.465-1.473,0.261-2.091-0.453c-0.617-0.716-0.683-1.671-0.146-2.136l11.116-9.6l-11.26-9.829
		c-0.535-0.467-0.464-1.422,0.156-2.134c0.621-0.712,1.559-0.911,2.094-0.445L31.93,21.935c0.406,0.304,0.674,0.785,0.674,1.332
		C32.604,23.772,32.374,24.221,32.016,24.526z"/>
</g>
</svg>
