<svg xmlns="http://www.w3.org/2000/svg" width="2052" height="2052" viewBox="0 0 2052 2052">
    <path fill="#ffffff" d="M1184.83 1463.755c84.956-54.15 154.57-98.84 154.695-99.31.195-.727-307.5-197.293-312.59-199.695-1.38-.65-36.587 21.322-157.672 98.4-85.743 54.58-156.465 99.754-157.16 100.385-.976.89 34.212 23.745 155.93 101.284 152.346 97.05 157.27 100.09 159.762 98.76 1.414-.76 72.08-45.68 157.036-99.83zM865.104 1194.54c85.945-54.752 156.366-99.864 156.49-100.25.38-1.166-312.07-199.69-314.227-199.656-1.747.03-310.055 195.687-313.21 198.77-.94.917 33.915 23.59 155 100.832 85.915 54.807 156.992 99.694 157.947 99.75.955.056 72.055-44.695 158-99.447zm636.324-.102c86.042-54.807 156.438-99.92 156.436-100.25 0-.745-311.792-199.476-313.663-199.926-1.82-.438-314.49 198.833-314.05 200.154.464 1.387 311.795 199.672 313.51 199.672.736 0 71.735-44.843 157.776-99.65zm-636.003-405.35c85.993-54.725 156.37-99.774 156.396-100.108.07-.828-313.04-200.228-314.38-200.217-.59.005-71.64 44.967-157.9 99.916-156.29 99.56-156.825 99.91-154.5 101.65C402.89 696.19 706.63 889 707.73 888.81c.744-.128 71.71-45.006 157.704-99.73zm636.334-.135c85.83-54.65 156.07-99.664 156.08-100.03.02-.542-301.54-193.156-311.48-198.946l-3-1.748-157.2 100.17c-86.467 55.09-156.865 100.514-156.44 100.94 3.02 3.02 313 199.6 314.31 199.323.917-.19 71.893-45.062 157.727-99.713z"/>
</svg>
