<?xml version="1.0" encoding="UTF-8"?>
<svg height="48pt" viewBox="0 0 256 256" width="48pt" xmlns="http://www.w3.org/2000/svg" xmlns:xlink="http://www.w3.org/1999/xlink">
<defs>
<linearGradient id="a" gradientTransform="matrix(1 0 0 -1 123.2 547.5)" gradientUnits="userSpaceOnUse" x1="68.94" x2="68.94" y1="503.6" y2="490.7">
<stop offset="0" stop-color="#fff"/>
<stop offset="1" stop-color="#999"/>
</linearGradient>
<radialGradient id="b" cx="116.8" cy="47.08" gradientUnits="userSpaceOnUse" r="182.3">
<stop offset="0" stop-color="#fff"/>
<stop offset=".5955" stop-color="#9cf"/>
<stop offset=".9944" stop-color="#39f"/>
</radialGradient>
<linearGradient id="c" gradientUnits="userSpaceOnUse" x1="125.9" x2="125.9" y1="56.8" y2="245.9">
<stop offset="0" stop-color="#06c"/>
<stop offset=".9944" stop-color="#036"/>
</linearGradient>
</defs>
<g transform="matrix(1.003 0 0 .958 -2.47 5.76)">
<path d="M256 256H0V0h256V256z" fill="none" opacity=".2"/>
<path d="m126.1 238c61.96 0 112.2-50.47 112.2-112.4 0-61.53-50.26-112-112.2-112-61.52 0-112.2 50.48-112.2 112 0 61.92 50.69 112.4 112.2 112.4z" fill="url(#b)"/>
<path d="m212 53.62c16.44 19.51 26.35 44.64 26.35 71.96 0 61.92-50.26 112.4-112.2 112.4-27.13 0-52.15-9.82-71.65-26.1 20.66 24.5 51.51 40.1 85.71 40.1 61.96 0 112.2-50.47 112.2-112.4 0-34.41-15.72-65.36-40.42-85.96z" opacity=".2"/>
<path d="m126.1 7c-65.5 0-118.8 53.2-118.8 118.6 0 65.6 53.29 119 118.8 119s118.8-53.37 118.8-119c0-65.39-53.29-118.6-118.8-118.6zm0 231c-61.52 0-112.2-50.47-112.2-112.4 0-61.53 50.69-112 112.2-112 61.96 0 112.2 50.48 112.2 112 0 61.92-50.26 112.4-112.2 112.4z" fill="#036"/>
<path d="m88.88 25.92c-.56 0-1.16.23-1.79.58 1.46-.43 2.15-.58 1.79-.58zm36.13 7.05l.36-5.29-5.58.35.74 4.93h4.48zm-62.95 91.34c-1.12-1.06-.37-5.65-.37-5.65s-16.76-8.81-35.02-14.1c-2.25-.65-1.11-5.29 1.11-7.05l-.74-4.95c-.37-2.46 3.73-14.45 7.83-15.5 4.1-1.06-.37 7.05-.37 7.05l-4.1 2.47s4.84 5.64 5.96 5.64c1.11 0 2.98-2.82 2.98-2.82l-5.21-3.52 4.84-2.12.3-1.86.81-.26 8.02-12.14c5.54-2.27 12.35-5.08 13.22-5.49 1.49-.7 11.92-6.69 13.78-8.1 1.87-1.42 5.96-1.06 7.44-1.06 1.5 0 3.73-.71 4.1-4.59.37-3.88 1.87-4.58 2.98-3.52 1.12 1.05-1.12 2.82 1.49 3.52 2.61.71 4.84 2.47 6.7.71 1.36-1.29-.46-2.76-1.69-3.87h20.68l2.24-6.36-4.84-.7-17.89-1.76v-2.12l-1.43.24c1.94-10.64 13.44-8.89 4.78-15.04-.53-.38-8.1 11.94-10.03 11.7-3.49-.46-8-.5-8.97.64-1.27 1.5 2.86-5.16 6.41-7.18-5.67 1.67-23.59 7.8-42.54 27.99-18.11 19.29-25.33 45.29-25.33 46.2 0 1.76 3.73 2.47 4.1 4.59.37 2.11-7.07 9.17-7.07 12.69 0 1.63-1.76 23.36 4.46 41.27 7.27 20.9 22.78 38.35 24.59 39.5l3.72-1.77s-8.57-15.16-8.94-16.58c-.37-1.4 9.68-21.86 14.53-21.15 4.84.69 3.73 2.12 6.71.35 2.98-1.76 4.84-16.23 8.19-17.63 3.36-1.42 7.08-3.18 6.71-6.7-.38-3.54-13.04-9.88-14.16-10.93h0zm80.83-103.7l-10.06-3.53 1.86 5.65 8.19-2.12zm-37.62 13.05c1.12 0 23.47-14.81 21.23-15.16-2.23-.35-2.61 0-8.57-.71-5.96-.71-12.29 8.47-13.78 9.88-1.49 1.42-.99 5.99 1.12 5.99zm102.6 106.3l2.89-3.74-2.89-1.02-2.16 2.72-2.52 3.73 2.16 1.02 2.52-2.72zm12.61 12.24l-.72-5.44h-4.68l-.36 4.07-4.33-.67-1.08-4.42-2.16-1.36-2.53 3.06-2.52-.68-.73 2.37 2.89.69v22.09l10.2 2.46c-.23.41-.41.75-.47.94-.73 2.38 2.88 3.41 5.4 2.38.94-.38 3.91-3.38 5.77-7.81 2.6-6.18 4.87-14.33 5.32-17.22l1.17-2.5-7.21 2.72-3.97-.67 0 0zm15.14-41.13l-1.88-3.65c-2.23-12.57-7.34-28.67-18.3-45.3-16.49-25-62.38-39.42-62.38-39.42l-2.52 3.05-1.45-2.37-3.61-1.37v3.06l3.25 2.73-2.16 1.02-8.29.68-18.75 10.2 1.8 8.15-2.17.69-1.07 1.7 6.13 9.17.36 3.07-5.05 1.02v6.11l-2.88.68.36 4.76-24.52 17 .72 9.51c1.8 2.38 15.86 16.66 15.86 16.66s16.22.67 19.83-1.36c3.61-2.04 1.08 2.04 2.16 3.06 1.08 1.03 1.44 8.16 2.52 8.84 1.08.68 0 4.75 1.44 6.12 1.44 1.35 1.44 17.68 1.44 17.68s8.65 14.61 8.65 18.35c0 3.74-.36 3.4 6.49 3.06 6.85-.34 8.29-3.06 9.73-4.07 1.45-1.02 1.45-3.4 2.89-5.45 1.45-2.04 3.96-9.86 7.21-12.57 3.24-2.73 11.9-4.77 12.61-9.52.72-4.76 3.97-8.5 3.97-8.5l15.59-16.49-.44 2.22-.36 8.49 4.69-1.7-.36-9.18-1.69-1.78.24-.26s-1.09-2.04-2.52-2.04c-1.44 0-10.1 2.04-11.54 1.7-1.45-.34-7.58-16.66-8.66-17.33-1.08-.68-7.93-11.9-7.93-11.9s15.86 19.04 18.38 26.51c1.46 4.35 6.97.3 11.44-4.24l1.18 2.89 2.88-.69-.36-3.4h3.24v5.1l-1.08 2.72-.37 4.42 2.89 2.73 1.45-2.38 4.68-4.42 5.41-2.72 1.44 2.72.72 3.74-1.45 4.08-2.88 2.38-1.44 6.12v3.05l-3.24-2.04-.36-6.46-4.69.34-2.16 5.77 3.24 4.77 7.57 1.02 6.13-5.79.72-11.21 2.73-3.6c1.78 4.57 3.05 9.35 3.05 13.8 0 4.88 2.23-3.38.33-18.26l1.11-1.45v0zm-90.85-34.67l-19.47-.69 8.29-6.79h4.33l6.85 4.75v2.73l0 0zm23.8-2.38v3.06h-8.29l.72 2.04-5.05.68-.36 1.69-3.6-.67-6.49-1.37 1.08-1.69 1.08-2.05 3.6-3.73 1.45 2.72 5.41-.34 2.88-3.06 11.17 2.04-3.6.69v0zm .71-4.42l-4.32.68-.72-3.06 5.4-.68.73-3.06 3.97 4.08-5.06 2.03v.01zm20.91 105.7l-2.53 2.04.36 5.11h3.25v-4.41l2.89-3.75v-7.81l-1.81-.35-2.16 9.18h0zm-24.15-10.18s-2.53.66.36 1.69c2.88 1.02 14.42-16.64 14.42-16.64l-9.74 6.11-5.04 8.84h0zm-19.63 65.14l-2.16-2.06-4.33-.69-.72 2.06-5.77-.68-.36-2.74h-4.32l-4.68 2.74h-8.29l-.72-2.06-13.33-1.38-2.17 2.05-5.4-1.36-.72-4.8-2.52-.35-2.88 5.15-9.73-.35c1.74.82 16.27 9.49 38.54 11.3 29.55 2.39 43.6-4.79 43.6-4.79l-1.08-1.03-12.97-1.02v0z" fill="url(#c)"/>
<path d="m125.8 103.1c38.44 0 71.88-13.24 89.08-32.76-17.32-33.06-50.8-55.63-89.24-55.63-38.11 0-71.63 22.49-89.06 55.46 17.16 19.61 50.68 32.93 89.23 32.93z" fill="#fff" opacity=".5"/>
</g>
<path d="M256 256H0V0h256V256z" fill="none" opacity=".2" transform="translate(-5.76 51.86)"/>
<path d="m186.9 40.95l10.31 27.19h0l-10.31-27.19z" fill="url(#a)" opacity=".4" transform="translate(-5.76 51.86)"/>
</svg>