<?xml version="1.0" encoding="UTF-8" standalone="no"?>
<!-- Created with Inkscape (http://www.inkscape.org/) -->

<svg
   xmlns:dc="http://purl.org/dc/elements/1.1/"
   xmlns:cc="http://creativecommons.org/ns#"
   xmlns:rdf="http://www.w3.org/1999/02/22-rdf-syntax-ns#"
   xmlns:svg="http://www.w3.org/2000/svg"
   xmlns="http://www.w3.org/2000/svg"
   xmlns:sodipodi="http://sodipodi.sourceforge.net/DTD/sodipodi-0.dtd"
   xmlns:inkscape="http://www.inkscape.org/namespaces/inkscape"
   width="73.571609mm"
   height="24.017151mm"
   viewBox="0 0 73.571609 24.017151"
   version="1.1"
   id="svg8"
   inkscape:version="0.92.4 (5da689c313, 2019-01-14)"
   sodipodi:docname="wentworth.svg">
  <defs
     id="defs2" />
  <sodipodi:namedview
     id="base"
     pagecolor="#ffffff"
     bordercolor="#666666"
     borderopacity="1.0"
     inkscape:pageopacity="0.0"
     inkscape:pageshadow="2"
     inkscape:zoom="0.98994949"
     inkscape:cx="-163.06501"
     inkscape:cy="-22.988873"
     inkscape:document-units="mm"
     inkscape:current-layer="layer1"
     showgrid="false"
     fit-margin-top="0"
     fit-margin-left="0"
     fit-margin-right="0"
     fit-margin-bottom="0"
     inkscape:window-width="2067"
     inkscape:window-height="1406"
     inkscape:window-x="-11"
     inkscape:window-y="-11"
     inkscape:window-maximized="1" />
  <metadata
     id="metadata5">
    <rdf:RDF>
      <cc:Work
         rdf:about="">
        <dc:format>image/svg+xml</dc:format>
        <dc:type
           rdf:resource="http://purl.org/dc/dcmitype/StillImage" />
        <dc:title></dc:title>
      </cc:Work>
    </rdf:RDF>
  </metadata>
  <g
     inkscape:label="Layer 1"
     inkscape:groupmode="layer"
     id="layer1"
     transform="translate(-68.214195,-136.49141)">
    <path
       style="fill:#000000;stroke-width:0.08466667"
       d="m 125.78753,160.39688 c 0,-0.0614 0.0377,-0.27414 0.0837,-0.47272 0.046,-0.19858 0.10491,-0.50392 0.13084,-0.67855 0.0463,-0.31224 0.0534,-0.3175 0.42374,-0.3175 h 0.37661 l -0.39255,0.79022 c -0.21589,0.43463 -0.44424,0.79023 -0.50744,0.79023 -0.0632,0 -0.1149,-0.0502 -0.1149,-0.11168 z m -38.269336,-0.62753 c 0,-0.0496 0.08852,-0.28767 0.196703,-0.52916 0.108187,-0.24149 0.323386,-0.76293 0.47822,-1.15875 0.154833,-0.39581 0.329947,-0.83396 0.38914,-0.97366 0.05919,-0.1397 0.226572,-0.55424 0.371952,-0.9212 0.145381,-0.36695 0.372963,-0.90035 0.505739,-1.18533 0.132776,-0.28498 0.278704,-0.65441 0.324284,-0.82096 0.105994,-0.38731 0.979868,-2.44786 1.035962,-2.44274 0.04575,0.004 0.323535,0.56146 1.073096,2.15289 0.263193,0.5588 0.771315,1.6256 1.129157,2.37067 0.357844,0.74507 0.791954,1.66083 0.96469,2.03502 0.19839,0.42978 0.366855,0.68595 0.457394,0.69554 0.07883,0.008 0.334098,0.0466 0.567259,0.085 0.57975,0.0955 0.936327,0.005 1.275544,-0.32384 0.712612,-0.69069 0.47719,-1.59879 -0.537399,-2.07292 -1.002732,-0.4686 -1.3729,-0.9013 -1.373425,-1.60545 -7.62e-4,-1.03955 0.782462,-1.55131 2.05285,-1.34133 0.311785,0.0515 0.3175,0.0593 0.3175,0.43146 0,0.32672 -0.02043,0.37093 -0.148166,0.32061 -0.08149,-0.0321 -0.346942,-0.0795 -0.589888,-0.10528 -0.517339,-0.0549 -0.787301,0.0787 -0.94934,0.46986 -0.149085,0.35992 0.04444,0.61572 0.724322,0.95736 0.65578,0.32953 1.156831,0.74292 1.435489,1.18434 0.166956,0.26447 0.204916,0.43574 0.204916,0.92452 0,0.81196 -0.251938,1.22775 -1.015375,1.67575 -0.355515,0.20861 -0.45789,0.22463 -1.566334,0.24498 l -1.185957,0.0218 -0.432518,-0.99436 -0.432518,-0.99436 h -1.751498 -1.751498 l -0.395364,0.99484 -0.395364,0.99483 H 88.00798 c -0.289743,0 -0.489786,-0.0368 -0.489786,-0.0901 z m 4.741333,-2.91464 c 0,-0.0228 -0.260397,-0.58475 -0.578659,-1.24883 -0.318262,-0.66409 -0.604739,-1.31221 -0.636613,-1.44027 -0.08475,-0.34048 -0.171251,-0.28776 -0.34728,0.21167 -0.08617,0.24447 -0.225168,0.5969 -0.308888,0.78316 -0.182341,0.40569 -0.66856,1.63879 -0.66856,1.69554 0,0.0221 0.5715,0.0401 1.27,0.0401 0.6985,0 1.27,-0.0186 1.27,-0.0414 z m 5.2705,2.91001 c -0.257572,-0.0744 -0.275167,-0.10366 -0.275167,-0.45803 0,-0.40816 0.013,-0.42289 0.257592,-0.29199 0.299559,0.16032 1.147434,0.11789 1.453435,-0.0727 0.653814,-0.40729 0.795101,-1.21221 0.319017,-1.81745 -0.09281,-0.11799 -0.489186,-0.36751 -0.880843,-0.55449 -0.886915,-0.42344 -1.149201,-0.75041 -1.149201,-1.43261 0,-1.09859 0.759582,-1.61812 2.053167,-1.4043 0.311785,0.0515 0.3175,0.0593 0.3175,0.43146 0,0.32828 -0.01982,0.37063 -0.148167,0.31654 -0.275692,-0.11619 -1.010361,-0.14531 -1.193481,-0.0473 -0.236635,0.12664 -0.458981,0.56428 -0.392734,0.77301 0.05649,0.17798 0.519456,0.50959 1.164374,0.83401 0.222013,0.11168 0.536239,0.34981 0.69828,0.52917 0.162041,0.17936 0.313771,0.32611 0.337171,0.32611 0.0234,0 0.0426,-0.21363 0.0426,-0.47473 0,-0.97275 0.78508,-2.06168 1.84421,-2.55797 0.41261,-0.19335 0.59669,-0.22687 1.24613,-0.22692 0.69028,-5e-5 0.82001,0.0271 1.37836,0.28881 0.36067,0.16903 0.73721,0.42264 0.90768,0.61133 0.30825,0.3412 0.79746,1.23587 0.81431,1.48923 0.0101,0.15245 0.0529,0.0348 0.19494,-0.53621 0.0892,-0.35853 0.61273,-1.03335 1.02366,-1.31943 0.44395,-0.30905 1.30396,-0.57611 1.85527,-0.57611 0.45401,0 1.27615,0.20119 1.35706,0.3321 0.025,0.0405 0.0215,0.24901 -0.008,0.46328 l -0.0534,0.38957 -0.29534,-0.18253 c -0.2065,-0.12763 -0.47682,-0.1934 -0.89868,-0.21867 -0.55388,-0.0332 -0.64845,-0.013 -1.15352,0.24622 -1.79225,0.91981 -1.74877,3.34299 0.076,4.23831 0.54283,0.26633 1.35148,0.26558 1.86013,-0.002 0.2035,-0.10694 0.38091,-0.18314 0.39424,-0.16933 0.0133,0.0138 0.0502,0.19962 0.082,0.41292 l 0.0577,0.38781 -0.40963,0.15843 c -0.5251,0.20309 -1.44547,0.20774 -2.02945,0.0103 -0.91191,-0.30838 -1.57091,-0.95241 -1.86884,-1.82639 -0.10448,-0.30649 -0.19132,-0.5001 -0.19298,-0.43025 -0.002,0.0699 -0.0959,0.32655 -0.20946,0.57044 -0.59345,1.27465 -2.06774,2.05884 -3.38387,1.79991 -0.95723,-0.18833 -1.73561,-0.71394 -2.16144,-1.45954 l -0.23685,-0.41471 -0.0599,0.31951 c -0.2269,1.2095 -1.467626,1.91064 -2.733971,1.545 z m 6.443943,-0.83943 c 0.25308,-0.0947 0.63323,-0.32452 0.84479,-0.51075 0.92939,-0.81808 0.9765,-2.40237 0.0984,-3.31005 -1.48808,-1.53825 -3.96085,-0.5292 -3.97557,1.62229 -0.007,1.02509 0.60375,1.87273 1.59673,2.21598 0.56508,0.19533 0.87699,0.19153 1.43561,-0.0175 z m 6.99689,-2.11078 v -3.05107 h 0.381 0.381 v 2.98027 c 0,1.63915 0.0323,2.94407 0.0717,2.89983 0.0394,-0.0442 0.19806,-0.40428 0.35251,-0.8001 0.15445,-0.39581 0.36491,-0.89111 0.46769,-1.10066 0.10278,-0.20955 0.29009,-0.68196 0.41625,-1.0498 0.12615,-0.36785 0.33476,-0.90125 0.46357,-1.18534 0.12881,-0.28409 0.34484,-0.79228 0.48007,-1.12932 0.13523,-0.33703 0.26493,-0.61104 0.28821,-0.60891 0.0233,0.002 0.30696,0.56364 0.63038,1.24779 0.32343,0.68415 0.84428,1.77731 1.15745,2.42924 0.56785,1.18211 1.09084,2.32431 1.09084,2.38238 0,0.0168 -0.16973,0.0306 -0.37718,0.0306 h -0.37718 l -0.36366,-0.7616 -0.36365,-0.76161 -1.28129,-4.2e-4 -1.2813,-4.2e-4 -0.24301,0.74083 -0.24301,0.74083 -0.8252,0.0242 -0.82519,0.0242 v -3.05106 z m 4.1534,0.3991 c -0.61218,-1.33761 -0.83265,-1.72032 -0.89014,-1.54517 -0.0306,0.0931 -0.13196,0.35984 -0.22532,0.59267 -0.0934,0.23283 -0.26093,0.66146 -0.37238,0.9525 l -0.20264,0.52917 h 0.96633 0.96634 z m 2.11193,-0.0212 v -2.667 h -0.762 -0.762 v -0.381 -0.381 h 1.905 1.905 v 0.381 0.381 h -0.71966 -0.71967 v 2.667 2.667 h -0.42333 -0.42334 z m 2.37067,-0.381 v -3.048 h 1.69333 1.69334 v 0.381 0.381 h -1.27 -1.27 v 0.93133 0.93134 h 0.889 0.889 v 0.381 0.381 h -0.889 -0.889 v 0.97366 0.97367 h 1.27 1.27 v 0.381 0.381 h -1.69334 -1.69333 z m 3.85233,2.97405 c -0.23386,-0.0497 -0.25604,-0.0857 -0.27979,-0.45532 l -0.0258,-0.40139 0.23066,0.0877 c 0.38912,0.14794 1.09981,0.11609 1.40652,-0.063 1.07223,-0.62621 0.78254,-1.90057 -0.54436,-2.39467 -0.60018,-0.2235 -0.95426,-0.54636 -1.07462,-0.97987 -0.12909,-0.46496 -0.1145,-0.70295 0.0677,-1.10416 0.28739,-0.6328 0.9167,-0.89476 1.82302,-0.75885 l 0.38632,0.0579 v 0.38487 c 0,0.33416 -0.0195,0.37655 -0.14817,0.32171 -0.0815,-0.0347 -0.36041,-0.081 -0.61983,-0.1028 -0.44733,-0.0376 -0.48337,-0.0257 -0.6985,0.22993 -0.42464,0.50465 -0.22722,0.84418 0.78917,1.35725 0.9651,0.48718 1.35466,1.03631 1.35466,1.90955 0,1.39152 -1.16893,2.22917 -2.667,1.91116 z m 6.39234,-3.94772 v -4.02166 h 0.46566 0.46567 v 3.51366 3.51367 h 1.60867 1.60866 v 0.508 0.508 h -2.07433 -2.07433 z m 4.318,1.35467 v -2.667 h -0.71967 -0.71967 v -0.381 -0.381 h 1.905 1.905 v 0.381 0.381 h -0.80433 -0.80433 v 2.667 2.667 h -0.381 -0.381 z m 3.1115,2.60422 -0.5715,-0.0296 v -2.95065 -2.95065 l 0.6985,-0.0679 c 0.98224,-0.0955 1.38392,-0.0508 1.98319,0.22048 0.62511,0.283 1.15749,0.8106 1.5086,1.49504 0.22673,0.44198 0.25306,0.57365 0.25108,1.25575 -0.002,0.66824 -0.0317,0.8193 -0.24213,1.22767 -0.34871,0.67683 -0.73628,1.11689 -1.21141,1.37549 -0.46821,0.25484 -1.30278,0.49581 -1.62979,0.47059 -0.11827,-0.009 -0.47222,-0.0299 -0.78654,-0.0462 z m 1.60048,-0.79602 c 1.61854,-0.60557 2.08006,-2.70055 0.85856,-3.89725 -0.60902,-0.59665 -1.62658,-0.91556 -2.10478,-0.65964 -0.15556,0.0833 -0.16376,0.19964 -0.16376,2.32413 0,2.04066 0.013,2.24404 0.14816,2.32278 0.24041,0.14002 0.74278,0.10418 1.26182,-0.09 z m 2.25438,0.76667 c -0.28634,-0.10644 -0.34928,-0.49181 -0.11175,-0.68415 0.23488,-0.19019 0.45644,-0.1979 0.63234,-0.022 0.34282,0.34281 -0.0531,0.87992 -0.52059,0.70616 z m -72.921695,-11.6342 v -11.64167 h 6.900333 6.900333 v 11.64167 11.64167 h -6.900333 -6.900333 z m 13.292666,0.0423 v -10.922 h -6.35 -6.35 v 10.922 10.922 h 6.35 6.35 z m -12.446,8.84767 v -1.82034 h 3.81 c 3.102022,0 3.81,0.0208 3.81,0.11192 0,0.28771 -0.287466,0.9033 -0.532916,1.1412 -0.299069,0.28987 -0.868406,0.52488 -1.271569,0.52488 H 74.61718 l 0.227507,-0.23746 c 0.314472,-0.32824 0.29756,-0.64075 -0.05368,-0.99199 -0.36807,-0.36807 -0.786812,-0.45058 -1.216845,-0.23978 -0.64698,0.31716 -0.897015,1.10815 -0.536954,1.69868 0.480575,0.78817 1.471089,0.97161 2.487798,0.46071 0.730721,-0.36719 1.183781,-0.88122 1.5411,-1.74849 l 0.279063,-0.67733 1.911514,-0.0228 1.911513,-0.0228 v 1.82192 1.82192 h -6.053668 -6.053667 z m 0,-3.85234 v -1.778 h 0.622125 0.622124 l 0.305025,0.61718 c 0.595969,1.20586 1.85966,2.40656 2.832226,2.69104 0.197908,0.0579 0.359833,0.13732 0.359833,0.17652 0,0.0392 -1.0668,0.0713 -2.370666,0.0713 h -2.370667 z m 8.382,1.57204 c 0,-0.13047 0.06106,-0.22534 0.166584,-0.25883 0.352371,-0.11184 1.204561,-0.82712 1.558892,-1.30844 0.203834,-0.27689 0.475592,-0.79128 0.603906,-1.1431 l 0.2333,-0.63967 h 0.581326 0.581325 v 1.778 1.778 h -1.862666 -1.862667 z m -2.887245,-0.55522 c -0.167702,-0.0427 -0.408538,-0.0964 -0.535192,-0.11936 -0.679548,-0.12323 -2.019095,-1.38342 -2.31598,-2.17879 l -0.16959,-0.45433 1.220937,-0.0234 c 1.220214,-0.0234 1.221149,-0.0233 1.578171,0.21842 0.591525,0.4005 0.597368,0.402 0.448892,0.11488 -0.0737,-0.14251 -0.133993,-0.28006 -0.133993,-0.30565 0,-0.0256 0.379531,-0.0465 0.843403,-0.0465 h 0.843403 l 0.08146,0.3175 c 0.15982,0.62293 0.262954,1.25633 0.284348,1.74632 l 0.02172,0.4975 -0.338666,0.12199 c -0.424627,0.15296 -1.426136,0.21402 -1.828912,0.1115 z m 2.768002,-0.69567 c -0.01763,-0.0602 -0.07597,-0.43333 -0.129638,-0.82915 -0.05367,-0.39581 -0.119113,-0.84349 -0.145436,-0.99483 l -0.04786,-0.27517 h 0.988794 c 1.130047,0 1.085362,-0.0536 0.67546,0.81035 -0.309088,0.65147 -1.260303,1.56544 -1.34132,1.2888 z m -8.262757,-4.21581 v -1.778 h 0.980722 c 0.539398,0 0.966417,0.0286 0.948931,0.0635 -0.737511,1.4731 -0.699837,1.3467 -0.731815,2.45533 l -0.02992,1.03717 h -0.583961 -0.583961 z m 2.321294,1.47392 c -0.122226,-0.65152 0.18687,-1.86404 0.651298,-2.5549 0.435477,-0.64779 0.52435,-0.693 1.366575,-0.69514 0.407458,-0.001 0.740833,0.0199 0.740833,0.0465 0,0.0266 -0.09507,0.21065 -0.211272,0.40893 -0.620377,1.05859 -0.695067,1.91683 -0.256771,2.95048 0.05806,0.13692 -0.02436,0.14817 -1.085395,0.14817 h -1.148222 z m 3.06607,0.11358 c -0.08033,-0.29976 -0.062,-0.88554 0.04043,-1.29235 0.09664,-0.38381 0.928078,-1.41226 1.047982,-1.29631 0.03252,0.0315 0.130776,0.37434 0.218352,0.762 0.08758,0.38765 0.236472,0.9714 0.330883,1.29722 0.09441,0.32582 0.171654,0.62109 0.171654,0.65617 0,0.0351 -0.395607,0.0638 -0.879126,0.0638 -0.840114,0 -0.88139,-0.008 -0.930177,-0.1905 z m 2.453361,0.0566 c -0.02827,-0.0737 -0.05139,-0.241 -0.05139,-0.37186 0,-0.19435 -0.24163,-1.20988 -0.562702,-2.36494 -0.05589,-0.20107 -0.0506,-0.2031 0.406877,-0.15588 0.562158,0.058 1.175529,0.334 1.529886,0.68835 0.37166,0.37166 0.731389,1.19009 0.796377,1.81186 l 0.05502,0.52639 h -1.061336 c -0.889696,0 -1.069648,-0.0217 -1.112728,-0.13392 z m 3.147011,-0.11415 c 0.106185,-0.72348 -0.417476,-2.74858 -0.790881,-3.05847 -0.249174,-0.2068 -0.09622,-0.24946 0.894478,-0.24946 h 1.016 v 1.778 1.778 h -0.578003 -0.578002 z m -10.987736,-5.33993 v -1.778 h 2.404718 2.404717 l 0.09427,0.27041 0.09427,0.27041 -1.130342,1.10542 c -0.621688,0.60799 -1.257389,1.2864 -1.412669,1.50759 l -0.282327,0.40217 H 70.147184 69.06087 Z m 3.894667,1.65578 c 0,-0.0672 0.156142,-0.24819 0.346983,-0.40217 0.190841,-0.15397 0.535013,-0.44187 0.764826,-0.63978 0.229814,-0.1979 0.455614,-0.35983 0.501779,-0.35983 0.04616,0 0.123429,0.10478 0.171697,0.23283 0.04827,0.12806 0.142576,0.34347 0.209571,0.47868 0.165629,0.33428 0.164969,0.33622 -0.200241,0.58931 -0.287636,0.19933 -0.400729,0.22318 -1.058333,0.22318 -0.585229,0 -0.736282,-0.0251 -0.736282,-0.12222 z m 5.376333,-0.13381 c -0.585128,-0.34988 -1.233739,-0.52624 -1.979366,-0.53818 l -0.632407,-0.0101 -0.200616,-0.65985 -0.200616,-0.65986 0.596336,-0.64718 c 0.327985,-0.35595 0.596336,-0.67814 0.596336,-0.71598 0,-0.0378 1.04775,-0.0688 2.328333,-0.0688 h 2.328333 v 1.778 1.778 l -1.2065,-0.001 c -1.187641,-0.001 -1.213116,-0.005 -1.629833,-0.25458 z m -9.271,-5.33197 v -1.778 h 1.905 1.905 v 0.38806 c 0,0.47631 0.256478,1.50438 0.59393,2.38073 0.139005,0.36099 0.252737,0.68579 0.252737,0.72178 0,0.036 -1.04775,0.0654 -2.328334,0.0654 h -2.328333 z m 5.552655,1.5875 c -0.300412,-1.03872 -0.65371,-2.52124 -0.695199,-2.91721 l -0.05141,-0.49062 1.27253,0.0253 1.272531,0.0253 0.09997,0.41671 c 0.196176,0.81776 -0.149613,1.70791 -1.01608,2.61568 -0.522615,0.54752 -0.78951,0.64576 -0.882342,0.32478 z m 2.236678,0.12043 c 0,-0.0385 0.0909,-0.29571 0.201995,-0.5715 0.397289,-0.98622 0.454707,-2.15084 0.135453,-2.74737 -0.08785,-0.16415 -0.05392,-0.16706 1.945574,-0.16706 h 2.034978 v 1.778 1.778 h -2.159 c -1.18745,0 -2.159,-0.0315 -2.159,-0.0701 z m -7.789333,-4.8406 v -1.016 h 6.053667 6.053666 v 1.016 1.016 h -2.08306 -2.08306 l -0.407795,-0.36664 c -0.467048,-0.41992 -1.1712,-0.71865 -1.854617,-0.78682 -0.423103,-0.0422 -0.528605,-0.0169 -1.022134,0.24541 -0.349384,0.18568 -0.625073,0.40486 -0.755019,0.60026 l -0.204685,0.30779 h -1.848481 -1.848482 z m 4.826,0.9461 c 0,-0.0915 0.331266,-0.39132 0.565934,-0.51218 0.426117,-0.21947 1.19959,-0.0224 1.585022,0.40374 l 0.161289,0.17834 h -1.156123 c -0.635867,0 -1.156122,-0.0315 -1.156122,-0.0699 z m 20.032748,11.18162 c -0.181271,-0.40702 -0.549815,-1.19725 -0.818986,-1.75605 -1.490907,-3.09512 -1.941763,-4.04422 -1.941763,-4.08764 0,-0.0265 -0.1524,-0.34421 -0.338666,-0.70599 -0.186267,-0.36178 -0.338667,-0.69804 -0.338667,-0.74724 0,-0.0526 0.203121,-0.0895 0.492875,-0.0895 h 0.492876 l 0.449638,0.9525 c 0.2473,0.52388 0.670061,1.41007 0.939469,1.96932 0.269407,0.55925 0.645527,1.37579 0.835822,1.81454 0.190294,0.43874 0.406432,0.88997 0.480307,1.00271 l 0.134316,0.205 0.116384,-0.22433 c 0.06401,-0.12339 0.251991,-0.61707 0.417734,-1.09707 l 0.301349,-0.87274 -0.304091,-0.71047 c -0.167249,-0.39075 -0.413255,-0.90126 -0.546679,-1.13446 -0.210878,-0.36857 -0.846667,-1.77295 -0.846667,-1.87017 0,-0.0192 0.229217,-0.0348 0.50937,-0.0348 0.507617,0 0.509845,0.001 0.647423,0.3175 0.188488,0.43349 1.445444,3.10666 2.131564,4.5332 l 0.561624,1.16769 0.114793,-0.36336 c 0.06314,-0.19985 0.397041,-1.07446 0.74201,-1.94357 0.344969,-0.86912 0.626608,-1.61207 0.625865,-1.651 -7.62e-4,-0.0389 0.175803,-0.51847 0.392326,-1.06563 l 0.393677,-0.99483 h 0.496678 c 0.28178,0 0.49667,0.0374 0.49667,0.0865 0,0.0476 -0.11768,0.34287 -0.26151,0.65617 -0.14383,0.3133 -0.311548,0.73156 -0.372711,0.92947 l -0.111206,0.35984 1.706217,0.006 1.70621,0.006 1.60854,2.02645 c 0.88469,1.11455 1.63717,2.02645 1.67216,2.02645 0.035,0 0.0636,-0.9144 0.0636,-2.032 v -2.032 h 0.381 0.381 v 3.048 c 0,1.78663 -0.0321,3.048 -0.0775,3.048 -0.0426,0 -0.22358,-0.18222 -0.40217,-0.40495 -0.91906,-1.1462 -2.85541,-3.40505 -2.91891,-3.40505 -0.04,0 -0.0728,0.85725 -0.0728,1.905 v 1.905 h -2.032 -2.032002 l -0.0023,-3.02683 -0.0023,-3.02683 -0.545021,1.27 c -0.299762,0.6985 -0.546361,1.31804 -0.547999,1.37675 -0.0016,0.0587 -0.07793,0.26827 -0.169537,0.46567 -0.206652,0.4453 -0.912326,2.11867 -1.060575,2.51495 -0.06036,0.16135 -0.142327,0.30348 -0.182141,0.31585 -0.06956,0.0216 -0.736812,-1.29484 -1.306385,-2.57741 l -0.272457,-0.61353 -0.329691,0.74053 c -0.18133,0.40728 -0.427388,1.02163 -0.546795,1.3652 -0.298403,0.85861 -0.444586,1.19579 -0.518033,1.19487 -0.0343,-4.2e-4 -0.210677,-0.3338 -0.391948,-0.74083 z m 9.177251,-2.30638 v -2.20134 h -1.27 -1.27 v 0.88604 0.88604 l 0.86783,0.0241 0.86784,0.0241 v 0.381 0.381 l -0.86784,0.0241 -0.86783,0.0241 v 0.88604 0.88604 h 1.27 1.27 z m 5.92667,0.42333 v -2.62467 h -0.762 -0.762 v -0.42333 -0.42333 h 2.23798 2.23798 l 0.47135,0.9657 c 0.25925,0.53114 0.47135,0.98888 0.47135,1.0172 0,0.12775 1.11904,2.3351 1.1838,2.3351 0.04,0 0.0981,-0.11544 0.12909,-0.25653 0.031,-0.14109 0.14565,-0.48441 0.2548,-0.76292 l 0.19845,-0.50638 -0.29749,-0.65526 c -0.16361,-0.36038 -0.44669,-0.94681 -0.62906,-1.30317 -0.18237,-0.35636 -0.33159,-0.68974 -0.33159,-0.74084 0,-0.053 0.15589,-0.0929 0.36265,-0.0929 h 0.36264 l 0.63219,1.32496 c 0.34771,0.72872 0.82332,1.72275 1.05692,2.20894 l 0.42474,0.884 0.26765,-0.66378 c 0.14721,-0.36508 0.3709,-0.96858 0.49709,-1.34112 0.12618,-0.37253 0.31531,-0.86783 0.42028,-1.10066 0.10496,-0.23284 0.26106,-0.62336 0.34688,-0.86784 0.15529,-0.44235 0.15778,-0.4445 0.51717,-0.4445 0.19862,0 0.36113,0.0383 0.36113,0.0852 0,0.0469 -0.3282,0.89458 -0.72934,1.88384 -0.40113,0.98925 -0.92002,2.29394 -1.15309,2.89931 -0.23307,0.60536 -0.44969,1.12923 -0.48139,1.16415 -0.0317,0.0349 -0.20234,-0.25083 -0.37922,-0.635 -0.17687,-0.38417 -0.43814,-0.94015 -0.5806,-1.23553 l -0.259,-0.53703 -0.28122,0.69709 c -0.15467,0.3834 -0.35822,0.85617 -0.45234,1.0506 -0.0941,0.19443 -0.17114,0.41133 -0.17114,0.482 0,0.33627 -0.14293,0.14589 -0.64323,-0.85672 -0.29816,-0.5975 -0.5421,-1.11262 -0.5421,-1.14471 0,-0.0321 -0.27947,-0.63596 -0.62104,-1.34194 -0.34157,-0.70597 -0.72025,-1.49313 -0.84151,-1.74925 -0.21186,-0.44746 -0.22068,-0.4549 -0.22563,-0.1905 l -0.005,0.27517 h -0.80434 -0.80433 v 2.62467 2.62466 h -0.33866 -0.33867 z m 11.04083,2.47498 c -0.76091,-0.27184 -1.72289,-1.18831 -1.91666,-1.82598 -0.059,-0.19396 -0.10717,-0.73367 -0.10717,-1.19933 0,-0.7555 0.0255,-0.89854 0.23658,-1.32843 0.27076,-0.55138 0.95994,-1.22642 1.5376,-1.50606 0.32011,-0.15496 0.52883,-0.18533 1.26596,-0.18421 0.77624,0.001 0.93953,0.0282 1.35441,0.22452 2.36381,1.11827 2.32258,4.60433 -0.0672,5.68195 -0.68003,0.30664 -1.66548,0.36548 -2.30351,0.13754 z m 1.99783,-0.88079 c 0.46447,-0.19935 0.88651,-0.59139 1.12375,-1.04386 0.13982,-0.26668 0.17756,-0.49163 0.17756,-1.05833 0,-0.56669 -0.0377,-0.79165 -0.17756,-1.05833 -0.89727,-1.7113 -3.38459,-1.66097 -4.21066,0.0852 -0.64616,1.36588 0.20479,2.97242 1.72904,3.26433 0.40372,0.0773 0.89752,0.009 1.35787,-0.189 z m 2.286,-2.00528 v -3.03576 l 0.5715,-0.054 c 1.29439,-0.12224 1.73977,-0.0357 2.17377,0.42227 0.3985,0.42053 0.55673,0.82106 0.55673,1.40928 0,0.478 -0.0328,0.58496 -0.29084,0.94788 l -0.29085,0.40908 0.31201,0.2357 c 0.777,0.58696 0.91803,0.81164 1.08444,1.72762 0.17626,0.97021 0.17536,0.97366 -0.25263,0.97366 h -0.36921 l -0.052,-0.43937 c -0.0593,-0.50105 -0.39086,-1.23238 -0.73579,-1.62316 -0.21488,-0.24345 -0.90205,-0.65037 -1.30694,-0.77393 -0.13773,-0.042 -0.10173,-0.0826 0.21033,-0.23696 0.20708,-0.10243 0.53904,-0.35167 0.73768,-0.55385 0.47591,-0.48439 0.49503,-0.84253 0.0714,-1.33746 -0.33641,-0.39302 -0.77523,-0.55361 -1.27656,-0.46717 l -0.33866,0.0584 -0.0224,2.68676 -0.0224,2.68675 h -0.37982 -0.37981 z m 4.99534,0.41109 v -2.62467 h -0.71967 -0.71967 v -0.42333 -0.42333 h 1.86267 1.86267 v 0.42333 0.42333 h -0.762 -0.762 v 2.62467 2.62467 h -0.381 -0.381 z m 2.45533,-0.42333 v -3.048 h 0.381 0.381 v 1.35466 1.35467 h 1.22552 1.22551 l 0.0233,-1.3335 0.0233,-1.3335 0.35983,-0.026 0.35983,-0.026 v 3.05774 3.05773 l -0.35983,-0.026 -0.35983,-0.026 -0.0234,-1.24883 -0.0234,-1.24883 h -1.22541 -1.2254 v 1.27 1.27 h -0.381 -0.381 z m -48.662166,-3.69775 c -0.247337,-0.0344 -0.275167,-0.0667 -0.275167,-0.3187 0,-0.15421 0.02236,-0.39217 0.04968,-0.5288 0.04937,-0.24685 0.05215,-0.24791 0.4445,-0.16921 0.585064,0.11735 1.03592,-0.0314 1.314775,-0.43379 l 0.223045,-0.32185 v -3.14929 -3.14928 h 0.508 0.508 v 3.15963 c 0,3.53169 -0.0323,3.79302 -0.526847,4.26305 -0.54626,0.51918 -1.401063,0.7659 -2.245986,0.64824 z m 5.312833,-2.00591 c -0.615565,-0.14398 -0.957123,-0.33072 -1.291025,-0.70583 -0.15142,-0.17011 -0.345825,-0.38256 -0.432012,-0.47211 -0.525715,-0.54621 -0.727481,-1.99616 -0.399,-2.86733 0.362995,-0.96271 1.039078,-1.61047 2.02911,-1.94412 1.393112,-0.46949 3.085005,0.25201 3.74808,1.59835 0.172012,0.34926 0.197083,0.52464 0.196414,1.37403 -8.47e-4,1.04435 -0.0835,1.31385 -0.618734,2.01682 -0.646152,0.84866 -2.038714,1.27949 -3.232833,1.00019 z m 1.559138,-0.79409 c 1.964445,-0.70142 2.127306,-3.41928 0.261195,-4.35887 -0.168236,-0.0847 -0.504042,-0.12817 -0.994541,-0.12873 -0.679908,-7.8e-4 -0.776674,0.0208 -1.181868,0.26408 -0.898429,0.53933 -1.300997,1.49255 -1.08245,2.56306 0.118393,0.57992 0.347465,0.91453 0.907539,1.32567 0.668604,0.4908 1.348291,0.59967 2.090125,0.33479 z m 2.507554,-2.15942 c 0.0021,-2.4272 0.02427,-3.04215 0.105834,-2.94 0.05673,0.071 0.405007,0.50919 0.773954,0.97367 0.368947,0.46447 0.845197,1.03833 1.058333,1.27524 0.213137,0.23691 0.63517,0.74071 0.937854,1.11957 l 0.550333,0.68883 0.02265,-2.07207 0.02264,-2.07207 h 0.337188 0.337188 v 3.06493 c 0,1.74903 -0.03171,3.0304 -0.07385,2.9845 -0.04062,-0.0442 -0.486464,-0.57573 -0.990771,-1.1811 -0.504307,-0.60537 -1.179704,-1.38642 -1.500881,-1.73567 -0.321178,-0.34925 -0.615865,-0.7112 -0.654862,-0.80433 -0.04111,-0.0982 -0.07316,0.65784 -0.07627,1.79917 l -0.0054,1.9685 h -0.423334 -0.423333 z m 4.230641,3.03307 c 0,-0.0733 0.966865,-2.50152 1.491009,-3.74459 0.297545,-0.70566 0.540991,-1.3199 0.540991,-1.36498 0,-0.0451 0.09192,-0.28686 0.204276,-0.53731 l 0.204276,-0.45536 0.563385,1.18534 c 0.309863,0.65193 0.789513,1.64253 1.065903,2.20133 0.27638,0.5588 0.50244,1.03985 0.50234,1.06901 -9e-5,0.0292 0.17049,0.41016 0.37909,0.84667 l 0.37927,0.79365 0.002,-2.64583 0.002,-2.64583 h -0.762 -0.762 v -0.381 -0.381 h 2.286 2.286 v 1.397 1.397 h 1.27 1.27 v -1.397 -1.397 h 0.381 0.381 l 0.003,2.89983 0.003,2.89983 0.32977,-0.80433 c 0.18137,-0.44238 0.52088,-1.28058 0.75447,-1.86267 0.23358,-0.58208 0.49866,-1.21073 0.58907,-1.397 0.0904,-0.18626 0.27025,-0.65299 0.39966,-1.03716 0.12941,-0.38418 0.25756,-0.69752 0.28479,-0.69633 0.0526,0.002 0.34636,0.60381 1.653,3.38449 0.44857,0.95462 0.88805,1.88807 0.97662,2.07434 l 0.16104,0.33866 0.005,-2.89983 c 0.003,-1.59491 0.0338,-2.89733 0.0688,-2.89428 0.0349,0.003 0.7874,0.91757 1.67217,2.03226 l 1.60867,2.02673 0.0227,-2.03227 0.0227,-2.03227 h 0.42182 0.42183 v 3.0528 c 0,2.95793 -0.005,3.04936 -0.15726,2.94217 -0.0865,-0.0609 -0.85801,-0.94729 -1.7145,-1.96987 l -1.55724,-1.85923 -0.0227,1.96834 -0.0227,1.96833 -0.72311,-0.0244 -0.72312,-0.0244 -0.3191,-0.71966 -0.3191,-0.71967 h -1.2961 -1.29611 l -0.27299,0.71967 -0.27299,0.71966 -0.72923,0.0244 -0.72923,0.0244 -0.0234,-1.29443 -0.0234,-1.29443 h -1.22767 -1.22766 l -0.0234,1.29117 -0.0234,1.29117 h -0.37879 -0.3788 v -2.6703 -2.6703 l -0.74083,0.0245 -0.74084,0.0245 -0.0224,2.64584 -0.0224,2.64583 h -0.76571 -0.76571 l -0.34709,-0.762 -0.34709,-0.762 -1.277822,8.1e-4 -1.277828,8.2e-4 -0.285104,0.76119 -0.285105,0.76118 h -0.371062 c -0.204084,0 -0.371062,-0.0162 -0.371062,-0.0361 z m 15.01683,-2.3134 c -0.0314,-0.12806 -0.24306,-0.63165 -0.47038,-1.11909 l -0.41332,-0.88626 -0.19461,0.42059 c -0.10704,0.23133 -0.27457,0.66824 -0.3723,0.97092 -0.0977,0.30269 -0.20334,0.61701 -0.23468,0.6985 -0.0521,0.13539 0.0206,0.14817 0.84268,0.14817 h 0.89967 z m -11.62521,-0.16934 c -0.0373,-0.12805 -0.252559,-0.62949 -0.478265,-1.11429 l -0.410375,-0.88147 -0.20224,0.45813 c -0.179167,0.40586 -0.607407,1.62609 -0.607407,1.73075 0,0.0218 0.397391,0.0397 0.88309,0.0397 h 0.883087 z"
       id="path21"
       inkscape:connector-curvature="0" />
  </g>
</svg>
